<?xml version="1.0" encoding="UTF-8" standalone="no"?>
<!-- Generator: Adobe Illustrator 22.0.0, SVG Export Plug-In . SVG Version: 6.00 Build 0)  -->

<svg
   xmlns:dc="http://purl.org/dc/elements/1.1/"
   xmlns:cc="http://creativecommons.org/ns#"
   xmlns:rdf="http://www.w3.org/1999/02/22-rdf-syntax-ns#"
   xmlns:svg="http://www.w3.org/2000/svg"
   xmlns="http://www.w3.org/2000/svg"
   xmlns:sodipodi="http://sodipodi.sourceforge.net/DTD/sodipodi-0.dtd"
   xmlns:inkscape="http://www.inkscape.org/namespaces/inkscape"
   version="1.1"
   id="Layer_1"
   x="0px"
   y="0px"
   viewBox="0 0 1080 1080"
   style="enable-background:new 0 0 1080 1080;"
   xml:space="preserve"
   sodipodi:docname="icon_home.svg"
   inkscape:version="0.92.4 (5da689c313, 2019-01-14)"><metadata
   id="metadata23"><rdf:RDF><cc:Work
       rdf:about=""><dc:format>image/svg+xml</dc:format><dc:type
         rdf:resource="http://purl.org/dc/dcmitype/StillImage" /><dc:title></dc:title></cc:Work></rdf:RDF></metadata><defs
   id="defs21" /><sodipodi:namedview
   pagecolor="#ffffff"
   bordercolor="#666666"
   borderopacity="1"
   objecttolerance="10"
   gridtolerance="10"
   guidetolerance="10"
   inkscape:pageopacity="0"
   inkscape:pageshadow="2"
   inkscape:window-width="1920"
   inkscape:window-height="1017"
   id="namedview19"
   showgrid="false"
   inkscape:zoom="0.43703704"
   inkscape:cx="691.77317"
   inkscape:cy="652.65169"
   inkscape:window-x="1912"
   inkscape:window-y="-8"
   inkscape:window-maximized="1"
   inkscape:current-layer="Layer_1" />
<style
   type="text/css"
   id="style2">
	.st0{fill:#CCCCCD;}
</style>

<g
   id="g16"
   transform="matrix(17.725067,0,0,17.725067,-10047.183,-8475.1906)">
	<path
   class="st0"
   d="m 621.9,538.3 c -1.7,0 -3,-1.3 -3,-3 v -37.5 l -21.6,-12.5 -21.6,12.4 v 34.6 h 11 v -25.6 c 0,-1.7 1.3,-3 3,-3 h 15.1 c 1.7,0 3,1.3 3,3 v 28.6 c 0,1.7 -1.3,3 -3,3 -1.7,0 -3,-1.3 -3,-3 v -25.6 h -9.1 v 25.6 c 0,1.7 -1.3,3 -3,3 h -17 c -1.7,0 -3,-1.3 -3,-3 V 496 c 0,-1.1 0.6,-2.1 1.5,-2.6 l 24.6,-14.1 c 0.9,-0.5 2.1,-0.5 3,0 l 24.6,14.3 c 0.9,0.5 1.5,1.5 1.5,2.6 v 39.2 c 0,1.6 -1.3,2.9 -3,2.9 z"
   id="path14"
   inkscape:connector-curvature="0"
   style="fill:#cccccd" />
</g>
</svg>