<?xml version="1.0" encoding="UTF-8" standalone="no"?>
<!-- Generator: Adobe Illustrator 22.0.0, SVG Export Plug-In . SVG Version: 6.00 Build 0)  -->

<svg
   xmlns:dc="http://purl.org/dc/elements/1.1/"
   xmlns:cc="http://creativecommons.org/ns#"
   xmlns:rdf="http://www.w3.org/1999/02/22-rdf-syntax-ns#"
   xmlns:svg="http://www.w3.org/2000/svg"
   xmlns="http://www.w3.org/2000/svg"
   xmlns:sodipodi="http://sodipodi.sourceforge.net/DTD/sodipodi-0.dtd"
   xmlns:inkscape="http://www.inkscape.org/namespaces/inkscape"
   version="1.1"
   id="Layer_1"
   x="0px"
   y="0px"
   viewBox="0 0 1080 1080"
   style="enable-background:new 0 0 1080 1080;"
   xml:space="preserve"
   sodipodi:docname="icon_back.svg"
   inkscape:version="0.92.4 (5da689c313, 2019-01-14)"><metadata
   id="metadata23"><rdf:RDF><cc:Work
       rdf:about=""><dc:format>image/svg+xml</dc:format><dc:type
         rdf:resource="http://purl.org/dc/dcmitype/StillImage" /><dc:title></dc:title></cc:Work></rdf:RDF></metadata><defs
   id="defs21" /><sodipodi:namedview
   pagecolor="#ffffff"
   bordercolor="#666666"
   borderopacity="1"
   objecttolerance="10"
   gridtolerance="10"
   guidetolerance="10"
   inkscape:pageopacity="0"
   inkscape:pageshadow="2"
   inkscape:window-width="1920"
   inkscape:window-height="1017"
   id="namedview19"
   showgrid="false"
   inkscape:zoom="0.43703704"
   inkscape:cx="691.77317"
   inkscape:cy="652.65169"
   inkscape:window-x="1912"
   inkscape:window-y="-8"
   inkscape:window-maximized="1"
   inkscape:current-layer="Layer_1" />
<style
   type="text/css"
   id="style2">
	.st0{fill:#CCCCCD;}
</style>
<g
   id="g12"
   transform="matrix(17.697206,0,0,17.697206,-8271.0456,-8459.0293)">
	<g
   id="g6">
		<path
   class="st0"
   d="m 524.3,511.5 h -52.7 c -1.2,0 -2.3,-0.7 -2.8,-1.8 -0.5,-1.1 -0.2,-2.4 0.6,-3.3 l 26.4,-26.6 c 1.2,-1.2 3.1,-1.2 4.2,0 1.1,1.2 1.2,3.1 0,4.2 l -21.3,21.5 h 45.5 c 1.7,0 3,1.3 3,3 0,1.7 -1.2,3 -2.9,3 z"
   id="path4"
   inkscape:connector-curvature="0"
   style="fill:#cccccd" />
	</g>
	<g
   id="g10">
		<path
   class="st0"
   d="m 498,538.1 c -0.8,0 -1.5,-0.3 -2.1,-0.9 l -15.4,-15.5 c -1.2,-1.2 -1.2,-3.1 0,-4.2 1.2,-1.1 3.1,-1.2 4.2,0 l 15.4,15.5 c 1.2,1.2 1.2,3.1 0,4.2 -0.6,0.6 -1.3,0.9 -2.1,0.9 z"
   id="path8"
   inkscape:connector-curvature="0"
   style="fill:#cccccd" />
	</g>
</g>

</svg>