<svg xmlns="http://www.w3.org/2000/svg" viewBox="0 0 618.96 311.28"><defs><style>.cls-1,.cls-9{fill:#ebebeb;}.cls-2{fill:#575756;}.cls-3{fill:#fff;}.cls-4{fill:#12307c;}.cls-5{font-size:45.22px;fill:#f6f6f6;font-family:ArialMT, Arial;}.cls-6{fill:#0033a1;}.cls-7{fill:#bec5ce;}.cls-8{fill:#0032a0;}.cls-9{opacity:0.6;}</style></defs><g id="Capa_2" data-name="Capa 2"><g id="Layer_1" data-name="Layer 1"><rect class="cls-1" width="618.96" height="311.28" rx="3.74"/><rect class="cls-2" x="10.05" y="9.99" width="597.89" height="291.75" rx="3.74"/><rect class="cls-2" x="10.05" y="9.99" width="597.89" height="291.75" rx="3.74"/><rect class="cls-2" x="10.05" y="9.99" width="597.89" height="291.75" rx="3.74"/><rect class="cls-3" x="16.06" y="17.48" width="585.88" height="276.78" rx="2.18"/><path class="cls-4" d="M21.54,22H597a1.42,1.42,0,0,1,1.42,1.42V83.23A1.73,1.73,0,0,1,596.7,85H21.62A1.61,1.61,0,0,1,20,83.35V23.53A1.53,1.53,0,0,1,21.54,22Z"/><text class="cls-5" transform="translate(196.37 65.1) scale(0.9 1)">HONDURAS</text><path class="cls-6" d="M174.08,269.43c-1.21,4.51-4.22,7.93-9.65,7.93-7.37,0-11.26-6.51-11.26-14.53,0-7.69,3.81-14.69,11.3-14.69,5.54,0,8.8,3.42,9.65,8.18h-2c-1.17-3.7-3.33-6.14-7.77-6.14-6.39,0-9.06,6.47-9.06,12.61s2.64,12.54,9.2,12.54c4.19,0,6.31-2.4,7.6-5.9Z"/><path class="cls-6" d="M194.69,263h-13.1v12h14.35l-.3,2h-16V248.55h15.74v2H181.59V261h13.1Z"/><path class="cls-6" d="M201,277V248.55h2.94c4,6.84,13.39,22.75,15,25.84h0c-.22-4.11-.18-8.3-.18-12.94v-12.9h2V277h-2.71c-3.82-6.6-13.35-23.16-15.19-26.29h0c.18,3.74.14,7.89.14,13.06V277Z"/><path class="cls-6" d="M233.49,250.58h-8.62v-2h19.29v2h-8.65V277h-2Z"/><path class="cls-6" d="M250,263.73V277h-2V248.55h9.2c5.06,0,7.74,3,7.74,7.49,0,3.62-1.94,6-4.8,6.67,2.64.69,4.4,2.61,4.4,7.45v1.1c0,2-.15,4.68.33,5.78h-2c-.47-1.22-.37-3.5-.37-6v-.73c0-4.68-1.24-6.63-6.16-6.63Zm0-2h6.2c4.51,0,6.6-1.87,6.6-5.61,0-3.5-2.05-5.5-6.05-5.5H250Z"/><path class="cls-6" d="M292.58,262.59c0,7.77-3.75,14.85-11.67,14.85-7.22,0-11.44-6.47-11.44-14.65s4.07-14.65,11.7-14.65C288.21,248.14,292.58,254.29,292.58,262.59Zm-21,.08c0,6.55,3.27,12.74,9.43,12.74,6.64,0,9.43-6,9.43-12.78s-3.16-12.45-9.35-12.45C274.49,250.18,271.59,256.24,271.59,262.67Z"/><path class="cls-6" d="M300.61,267.19,297.34,277h-2l9.43-28.49h2.35L316.93,277h-2.17l-3.33-9.85Zm10.16-2c-2.86-8.46-4.33-12.53-4.85-14.44h0c-.63,2.15-2.28,7.2-4.59,14.44Z"/><path class="cls-6" d="M343.7,263.93c0-5.57,0-10.9.15-13.75h-.11c-1,3.82-6.24,17.86-9.5,26.86h-1.95c-2.45-7-7.85-22.59-9-26.9h-.07c.18,3.25.25,9.89.25,14.77V277h-2V248.55h3c3.53,9.77,8,22.54,8.92,25.76h.07c.59-2.08,5.72-16.28,9.32-25.76h2.93V277h-2Z"/><path class="cls-6" d="M368.31,263H355.22v12h14.34l-.3,2h-16V248.55H369v2H355.22V261h13.09Z"/><path class="cls-6" d="M376.63,263.73V277h-2V248.55h9.2c5.07,0,7.74,3,7.74,7.49,0,3.62-1.94,6-4.8,6.67,2.64.69,4.4,2.61,4.4,7.45v1.1c0,2-.15,4.68.33,5.78h-2c-.47-1.22-.36-3.5-.36-6v-.73c0-4.68-1.25-6.63-6.17-6.63Zm0-2h6.2c4.51,0,6.61-1.87,6.61-5.61,0-3.5-2.06-5.5-6.06-5.5h-6.75Z"/><path class="cls-6" d="M399.81,248.55V277h-2V248.55Z"/><path class="cls-6" d="M426.37,269.43c-1.21,4.51-4.22,7.93-9.65,7.93-7.37,0-11.26-6.51-11.26-14.53,0-7.69,3.81-14.69,11.3-14.69,5.54,0,8.8,3.42,9.65,8.18h-2c-1.17-3.7-3.33-6.14-7.77-6.14-6.39,0-9.06,6.47-9.06,12.61s2.64,12.54,9.2,12.54c4.19,0,6.31-2.4,7.6-5.9Z"/><path class="cls-6" d="M434.29,267.19,431,277h-2l9.43-28.49h2.35L450.61,277h-2.16l-3.34-9.85Zm10.16-2c-2.86-8.46-4.33-12.53-4.84-14.44h0c-.62,2.15-2.28,7.2-4.59,14.44Z"/><rect class="cls-7" x="519.25" y="245.14" width="63.63" height="35.31" rx="1.7"/><rect class="cls-7" x="31.29" y="245.14" width="63.63" height="35.31" rx="1.7"/><path class="cls-3" d="M98.66,78.92H31.55a5.3,5.3,0,0,1-5-5.55V31.12a5.29,5.29,0,0,1,5-5.55H98.66a5.29,5.29,0,0,1,5,5.55V73.37A5.3,5.3,0,0,1,98.66,78.92Z"/><path class="cls-8" d="M97.94,44.31H33.2a3.23,3.23,0,0,1-3.05-3.38v-9.5a3.23,3.23,0,0,1,3.05-3.38H97.94a3.23,3.23,0,0,1,3,3.38v9.5A3.23,3.23,0,0,1,97.94,44.31Z"/><rect class="cls-3" x="30.15" y="43.96" width="70.84" height="16.26"/><path class="cls-8" d="M98.3,76.13H32.84a2.86,2.86,0,0,1-2.69-3V62.85a2.85,2.85,0,0,1,2.69-3H98.3a2.84,2.84,0,0,1,2.69,3V73.14A2.85,2.85,0,0,1,98.3,76.13Z"/><polygon class="cls-6" points="53.55 45.08 54.12 47.01 55.95 47.01 54.47 48.21 55.03 50.14 53.55 48.95 52.07 50.14 52.63 48.21 51.16 47.01 52.98 47.01 53.55 45.08"/><polygon class="cls-6" points="53.55 52.95 54.12 54.88 55.95 54.88 54.47 56.08 55.03 58.01 53.55 56.82 52.07 58.01 52.63 56.08 51.16 54.88 52.98 54.88 53.55 52.95"/><polygon class="cls-6" points="65.28 49.32 65.85 51.25 67.68 51.26 66.2 52.45 66.76 54.38 65.28 53.19 63.8 54.38 64.36 52.45 62.89 51.26 64.72 51.25 65.28 49.32"/><polygon class="cls-6" points="77.01 45.08 77.58 47.01 79.41 47.01 77.93 48.21 78.49 50.14 77.01 48.95 75.53 50.14 76.09 48.21 74.62 47.01 76.44 47.01 77.01 45.08"/><polygon class="cls-6" points="77.01 52.95 77.58 54.88 79.41 54.88 77.93 56.08 78.49 58.01 77.01 56.82 75.53 58.01 76.09 56.08 74.62 54.88 76.44 54.88 77.01 52.95"/><rect class="cls-9" x="33.06" y="100.78" width="548.81" height="128.17"/><path class="cls-6" d="M369.56,241.75,363,247.09h-2.41l6-5.34Z"/></g></g></svg>